<?xml version="1.0" encoding="UTF-8" standalone="no"?>
<!DOCTYPE svg PUBLIC "-//W3C//DTD SVG 1.1//EN"
 "http://www.w3.org/Graphics/SVG/1.1/DTD/svg11.dtd">
<!-- Generated by graphviz version 2.40.1 (20161225.0304)
 -->
<!-- Title: G Pages: 1 -->
<svg width="969pt" height="982pt"
 viewBox="0.00 0.00 969.20 982.00" xmlns="http://www.w3.org/2000/svg" xmlns:xlink="http://www.w3.org/1999/xlink">
<g id="graph0" class="graph" transform="scale(1 1) rotate(0) translate(4 978)">
<title>G</title>
<polygon fill="#ffffff" stroke="transparent" points="-4,4 -4,-978 965.1992,-978 965.1992,4 -4,4"/>
<g id="clust1" class="cluster">
<title>cluster_Global</title>
<path fill="none" stroke="#c0c0c0" d="M20,-152C20,-152 941.1992,-152 941.1992,-152 947.1992,-152 953.1992,-158 953.1992,-164 953.1992,-164 953.1992,-954 953.1992,-954 953.1992,-960 947.1992,-966 941.1992,-966 941.1992,-966 20,-966 20,-966 14,-966 8,-960 8,-954 8,-954 8,-164 8,-164 8,-158 14,-152 20,-152"/>
<text text-anchor="middle" x="480.5996" y="-952.1" font-family="Times,serif" font-size="11.00" fill="#c0c0c0">Global</text>
</g>
<g id="clust2" class="cluster">
<title>cluster_\Ascmvc</title>
<path fill="none" stroke="#c0c0c0" d="M28,-160C28,-160 933.1992,-160 933.1992,-160 939.1992,-160 945.1992,-166 945.1992,-172 945.1992,-172 945.1992,-925 945.1992,-925 945.1992,-931 939.1992,-937 933.1992,-937 933.1992,-937 28,-937 28,-937 22,-937 16,-931 16,-925 16,-925 16,-172 16,-172 16,-166 22,-160 28,-160"/>
<text text-anchor="middle" x="480.5996" y="-923.1" font-family="Times,serif" font-size="11.00" fill="#c0c0c0">Ascmvc</text>
</g>
<g id="clust3" class="cluster">
<title>cluster_\Ascmvc\Mvc</title>
<path fill="none" stroke="#c0c0c0" d="M737.1306,-349C737.1306,-349 910.1031,-349 910.1031,-349 916.1031,-349 922.1031,-355 922.1031,-361 922.1031,-361 922.1031,-896 922.1031,-896 922.1031,-902 916.1031,-908 910.1031,-908 910.1031,-908 737.1306,-908 737.1306,-908 731.1306,-908 725.1306,-902 725.1306,-896 725.1306,-896 725.1306,-361 725.1306,-361 725.1306,-355 731.1306,-349 737.1306,-349"/>
<text text-anchor="middle" x="823.6168" y="-894.1" font-family="Times,serif" font-size="11.00" fill="#c0c0c0">Mvc</text>
</g>
<g id="clust4" class="cluster">
<title>cluster_\Ascmvc\Middleware</title>
<path fill="none" stroke="#c0c0c0" d="M750.3284,-268C750.3284,-268 896.9053,-268 896.9053,-268 902.9053,-268 908.9053,-274 908.9053,-280 908.9053,-280 908.9053,-329 908.9053,-329 908.9053,-335 902.9053,-341 896.9053,-341 896.9053,-341 750.3284,-341 750.3284,-341 744.3284,-341 738.3284,-335 738.3284,-329 738.3284,-329 738.3284,-280 738.3284,-280 738.3284,-274 744.3284,-268 750.3284,-268"/>
<text text-anchor="middle" x="823.6168" y="-327.1" font-family="Times,serif" font-size="11.00" fill="#c0c0c0">Middleware</text>
</g>
<!-- \\Ascmvc\\Mvc\\FastRouter -->
<g id="node1" class="node">
<title>\\Ascmvc\\Mvc\\FastRouter</title>
<polygon fill="none" stroke="#000000" points="864.6058,-555 782.6278,-555 782.6278,-519 864.6058,-519 864.6058,-555"/>
<text text-anchor="middle" x="823.6168" y="-533.7" font-family="Courier,monospace" font-size="11.00" fill="#000000">FastRouter</text>
</g>
<!-- \\Ascmvc\\AbstractRouter -->
<g id="node15" class="node">
<title>\\Ascmvc\\AbstractRouter</title>
<polygon fill="none" stroke="#000000" points="534.9849,-555 426.2143,-555 426.2143,-519 534.9849,-519 534.9849,-555"/>
<text text-anchor="start" x="441.0062" y="-540.3" font-family="Courier,monospace" font-size="11.00" fill="#000000">«abstract»</text>
<text text-anchor="start" x="434.4073" y="-527.1" font-family="Courier,monospace" font-size="11.00" fill="#000000">AbstractRouter</text>
</g>
<!-- \\Ascmvc\\Mvc\\FastRouter&#45;&gt;\\Ascmvc\\AbstractRouter -->
<g id="edge1" class="edge">
<title>\\Ascmvc\\Mvc\\FastRouter&#45;&gt;\\Ascmvc\\AbstractRouter</title>
<path fill="none" stroke="#000000" d="M782.5817,-537C723.8039,-537 615.062,-537 545.3631,-537"/>
<polygon fill="none" stroke="#000000" points="544.9499,-533.5001 534.9499,-537 544.9498,-540.5001 544.9499,-533.5001"/>
</g>
<!-- \\Ascmvc\\Mvc\\Controller -->
<g id="node2" class="node">
<title>\\Ascmvc\\Mvc\\Controller</title>
<polygon fill="none" stroke="#000000" points="864.6058,-609 782.6278,-609 782.6278,-573 864.6058,-573 864.6058,-609"/>
<text text-anchor="middle" x="823.6168" y="-587.7" font-family="Courier,monospace" font-size="11.00" fill="#000000">Controller</text>
</g>
<!-- \\Ascmvc\\AbstractController -->
<g id="node12" class="node">
<title>\\Ascmvc\\AbstractController</title>
<polygon fill="none" stroke="#000000" points="547.88,-609 413.3192,-609 413.3192,-573 547.88,-573 547.88,-609"/>
<text text-anchor="start" x="441.0062" y="-594.3" font-family="Courier,monospace" font-size="11.00" fill="#000000">«abstract»</text>
<text text-anchor="start" x="421.2095" y="-581.1" font-family="Courier,monospace" font-size="11.00" fill="#000000">AbstractController</text>
</g>
<!-- \\Ascmvc\\Mvc\\Controller&#45;&gt;\\Ascmvc\\AbstractController -->
<g id="edge2" class="edge">
<title>\\Ascmvc\\Mvc\\Controller&#45;&gt;\\Ascmvc\\AbstractController</title>
<path fill="none" stroke="#000000" d="M782.5817,-591C727.2425,-591 627.6143,-591 557.9788,-591"/>
<polygon fill="none" stroke="#000000" points="557.9312,-587.5001 547.9312,-591 557.9311,-594.5001 557.9312,-587.5001"/>
</g>
<!-- \\Ascmvc\\AscmvcEventManagerListenerInterface -->
<g id="node21" class="node">
<title>\\Ascmvc\\AscmvcEventManagerListenerInterface</title>
<polygon fill="none" stroke="#000000" points="604.0611,-663 357.1381,-663 357.1381,-627 604.0611,-627 604.0611,-663"/>
<text text-anchor="middle" x="480.5996" y="-641.7" font-family="Courier,monospace" font-size="11.00" fill="#000000">AscmvcEventManagerListenerInterface</text>
</g>
<!-- \\Ascmvc\\Mvc\\Controller&#45;&gt;\\Ascmvc\\AscmvcEventManagerListenerInterface -->
<g id="edge3" class="edge">
<title>\\Ascmvc\\Mvc\\Controller&#45;&gt;\\Ascmvc\\AscmvcEventManagerListenerInterface</title>
<path fill="none" stroke="#000000" stroke-dasharray="1,5" d="M782.5817,-597.46C738.8631,-604.3425 667.5031,-615.5764 605.1267,-625.3961"/>
<polygon fill="none" stroke="#000000" points="604.5325,-621.9465 595.1985,-626.9591 605.6211,-628.8613 604.5325,-621.9465"/>
</g>
<!-- \\Ascmvc\\Mvc\\Doctrine -->
<g id="node3" class="node">
<title>\\Ascmvc\\Mvc\\Doctrine</title>
<polygon fill="none" stroke="#000000" points="857.9084,-771 789.3253,-771 789.3253,-735 857.9084,-735 857.9084,-771"/>
<text text-anchor="middle" x="823.6168" y="-749.7" font-family="Courier,monospace" font-size="11.00" fill="#000000">Doctrine</text>
</g>
<!-- \\Ascmvc\\AbstractModelObject -->
<g id="node14" class="node">
<title>\\Ascmvc\\AbstractModelObject</title>
<polygon fill="none" stroke="#000000" points="551.4792,-771 409.72,-771 409.72,-735 551.4792,-735 551.4792,-771"/>
<text text-anchor="start" x="441.0062" y="-756.3" font-family="Courier,monospace" font-size="11.00" fill="#000000">«abstract»</text>
<text text-anchor="start" x="417.9101" y="-743.1" font-family="Courier,monospace" font-size="11.00" fill="#000000">AbstractModelObject</text>
</g>
<!-- \\Ascmvc\\Mvc\\Doctrine&#45;&gt;\\Ascmvc\\AbstractModelObject -->
<g id="edge4" class="edge">
<title>\\Ascmvc\\Mvc\\Doctrine&#45;&gt;\\Ascmvc\\AbstractModelObject</title>
<path fill="none" stroke="#000000" d="M789.1565,-753C736.449,-753 634.3254,-753 562.0247,-753"/>
<polygon fill="none" stroke="#000000" points="561.5832,-749.5001 551.5832,-753 561.5831,-756.5001 561.5832,-749.5001"/>
</g>
<!-- \\Ascmvc\\Mvc\\AscmvcEventManagerFactory -->
<g id="node4" class="node">
<title>\\Ascmvc\\Mvc\\AscmvcEventManagerFactory</title>
<polygon fill="none" stroke="#000000" points="914.0893,-717 733.1443,-717 733.1443,-681 914.0893,-681 914.0893,-717"/>
<text text-anchor="middle" x="823.6168" y="-695.7" font-family="Courier,monospace" font-size="11.00" fill="#000000">AscmvcEventManagerFactory</text>
</g>
<!-- \\Ascmvc\\Mvc\\Psr4Autoloader -->
<g id="node5" class="node">
<title>\\Ascmvc\\Mvc\\Psr4Autoloader</title>
<polygon fill="none" stroke="#000000" points="878.0021,-663 769.2316,-663 769.2316,-627 878.0021,-627 878.0021,-663"/>
<text text-anchor="middle" x="823.6168" y="-641.7" font-family="Courier,monospace" font-size="11.00" fill="#000000">Psr4Autoloader</text>
</g>
<!-- \\Ascmvc\\Mvc\\AscmvcEvent -->
<g id="node6" class="node">
<title>\\Ascmvc\\Mvc\\AscmvcEvent</title>
<polygon fill="none" stroke="#000000" points="867.7057,-501 779.528,-501 779.528,-465 867.7057,-465 867.7057,-501"/>
<text text-anchor="middle" x="823.6168" y="-479.7" font-family="Courier,monospace" font-size="11.00" fill="#000000">AscmvcEvent</text>
</g>
<!-- \\Zend\\EventManager\\Event -->
<g id="node25" class="node">
<title>\\Zend\\EventManager\\Event</title>
<ellipse fill="none" stroke="#000000" cx="480.5996" cy="-126" rx="118.1004" ry="18"/>
<text text-anchor="middle" x="480.5996" y="-121.8" font-family="Times,serif" font-size="14.00" fill="#c0c0c0">\Zend\EventManager\Event</text>
</g>
<!-- \\Ascmvc\\Mvc\\AscmvcEvent&#45;&gt;\\Zend\\EventManager\\Event -->
<g id="edge6" class="edge">
<title>\\Ascmvc\\Mvc\\AscmvcEvent&#45;&gt;\\Zend\\EventManager\\Event</title>
<path fill="none" stroke="#000000" d="M779.4802,-483.1389C755.9101,-480.8615 728.1124,-474.0389 710.0344,-456 612.9714,-359.1468 737.2559,-250.6408 638.0344,-156 628.2474,-146.6648 616.5009,-139.7931 603.8919,-134.786"/>
<polygon fill="none" stroke="#000000" points="604.6945,-131.357 594.0997,-131.3105 602.3531,-137.9538 604.6945,-131.357"/>
</g>
<!-- \\Ascmvc\\Mvc\\ControllerManager -->
<g id="node7" class="node">
<title>\\Ascmvc\\Mvc\\ControllerManager</title>
<polygon fill="none" stroke="#000000" points="887.7983,-825 759.4354,-825 759.4354,-789 887.7983,-789 887.7983,-825"/>
<text text-anchor="middle" x="823.6168" y="-803.7" font-family="Courier,monospace" font-size="11.00" fill="#000000">ControllerManager</text>
</g>
<!-- \\Ascmvc\\AbstractControllerManager -->
<g id="node13" class="node">
<title>\\Ascmvc\\AbstractControllerManager</title>
<polygon fill="none" stroke="#000000" points="571.0721,-825 390.1271,-825 390.1271,-789 571.0721,-789 571.0721,-825"/>
<text text-anchor="start" x="441.0062" y="-810.3" font-family="Courier,monospace" font-size="11.00" fill="#000000">«abstract»</text>
<text text-anchor="start" x="398.1134" y="-797.1" font-family="Courier,monospace" font-size="11.00" fill="#000000">AbstractControllerManager</text>
</g>
<!-- \\Ascmvc\\Mvc\\ControllerManager&#45;&gt;\\Ascmvc\\AbstractControllerManager -->
<g id="edge7" class="edge">
<title>\\Ascmvc\\Mvc\\ControllerManager&#45;&gt;\\Ascmvc\\AbstractControllerManager</title>
<path fill="none" stroke="#000000" d="M759.5003,-807C709.47,-807 639.0388,-807 581.4724,-807"/>
<polygon fill="none" stroke="#000000" points="581.2497,-803.5001 571.2497,-807 581.2496,-810.5001 581.2497,-803.5001"/>
</g>
<!-- \\Ascmvc\\Mvc\\AscmvcEventManager -->
<g id="node8" class="node">
<title>\\Ascmvc\\Mvc\\AscmvcEventManager</title>
<polygon fill="none" stroke="#000000" points="890.8972,-447 756.3365,-447 756.3365,-411 890.8972,-411 890.8972,-447"/>
<text text-anchor="middle" x="823.6168" y="-425.7" font-family="Courier,monospace" font-size="11.00" fill="#000000">AscmvcEventManager</text>
</g>
<!-- \\Zend\\EventManager\\EventManager -->
<g id="node26" class="node">
<title>\\Zend\\EventManager\\EventManager</title>
<ellipse fill="none" stroke="#000000" cx="480.5996" cy="-72" rx="152.7321" ry="18"/>
<text text-anchor="middle" x="480.5996" y="-67.8" font-family="Times,serif" font-size="14.00" fill="#c0c0c0">\Zend\EventManager\EventManager</text>
</g>
<!-- \\Ascmvc\\Mvc\\AscmvcEventManager&#45;&gt;\\Zend\\EventManager\\EventManager -->
<g id="edge8" class="edge">
<title>\\Ascmvc\\Mvc\\AscmvcEventManager&#45;&gt;\\Zend\\EventManager\\EventManager</title>
<path fill="none" stroke="#000000" d="M756.1822,-425.4006C739.2219,-421.4177 722.3595,-414.3261 710.0344,-402 612.1634,-304.1207 738.965,-193.7214 638.0344,-99 632.6126,-93.9117 626.5995,-89.5931 620.1785,-85.9388"/>
<polygon fill="none" stroke="#000000" points="621.6859,-82.7788 611.1868,-81.3574 618.508,-89.0158 621.6859,-82.7788"/>
</g>
<!-- \\Ascmvc\\Mvc\\App -->
<g id="node9" class="node">
<title>\\Ascmvc\\Mvc\\App</title>
<polygon fill="none" stroke="#000000" points="850.6168,-879 796.6168,-879 796.6168,-843 850.6168,-843 850.6168,-879"/>
<text text-anchor="middle" x="823.6168" y="-857.7" font-family="Courier,monospace" font-size="11.00" fill="#000000">App</text>
</g>
<!-- \\Ascmvc\\AbstractApp -->
<g id="node16" class="node">
<title>\\Ascmvc\\AbstractApp</title>
<polygon fill="none" stroke="#000000" points="528.2866,-879 432.9126,-879 432.9126,-843 528.2866,-843 528.2866,-879"/>
<text text-anchor="start" x="441.0062" y="-864.3" font-family="Courier,monospace" font-size="11.00" fill="#000000">«abstract»</text>
<text text-anchor="start" x="444.3057" y="-851.1" font-family="Courier,monospace" font-size="11.00" fill="#000000">AbstractApp</text>
</g>
<!-- \\Ascmvc\\Mvc\\App&#45;&gt;\\Ascmvc\\AbstractApp -->
<g id="edge9" class="edge">
<title>\\Ascmvc\\Mvc\\App&#45;&gt;\\Ascmvc\\AbstractApp</title>
<path fill="none" stroke="#000000" d="M796.4141,-861C740.8722,-861 613.3642,-861 538.4566,-861"/>
<polygon fill="none" stroke="#000000" points="538.249,-857.5001 528.2489,-861 538.2489,-864.5001 538.249,-857.5001"/>
</g>
<!-- \\Ascmvc\\Mvc\\ViewObjectFactory -->
<g id="node10" class="node">
<title>\\Ascmvc\\Mvc\\ViewObjectFactory</title>
<polygon fill="none" stroke="#000000" points="887.7983,-393 759.4354,-393 759.4354,-357 887.7983,-357 887.7983,-393"/>
<text text-anchor="middle" x="823.6168" y="-371.7" font-family="Courier,monospace" font-size="11.00" fill="#000000">ViewObjectFactory</text>
</g>
<!-- \\Ascmvc\\Middleware\\LazyLoadingMiddleware -->
<g id="node11" class="node">
<title>\\Ascmvc\\Middleware\\LazyLoadingMiddleware</title>
<polygon fill="none" stroke="#000000" points="900.6943,-312 746.5394,-312 746.5394,-276 900.6943,-276 900.6943,-312"/>
<text text-anchor="middle" x="823.6168" y="-290.7" font-family="Courier,monospace" font-size="11.00" fill="#000000">LazyLoadingMiddleware</text>
</g>
<!-- \\Psr\\Http\\Server\\MiddlewareInterface -->
<g id="node24" class="node">
<title>\\Psr\\Http\\Server\\MiddlewareInterface</title>
<ellipse fill="none" stroke="#000000" cx="480.5996" cy="-18" rx="157.3697" ry="18"/>
<text text-anchor="middle" x="480.5996" y="-13.8" font-family="Times,serif" font-size="14.00" fill="#c0c0c0">\Psr\Http\Server\MiddlewareInterface</text>
</g>
<!-- \\Ascmvc\\Middleware\\LazyLoadingMiddleware&#45;&gt;\\Psr\\Http\\Server\\MiddlewareInterface -->
<g id="edge5" class="edge">
<title>\\Ascmvc\\Middleware\\LazyLoadingMiddleware&#45;&gt;\\Psr\\Http\\Server\\MiddlewareInterface</title>
<path fill="none" stroke="#000000" stroke-dasharray="1,5" d="M746.3228,-290.5271C733.0306,-286.8924 720.2351,-281.0827 710.0344,-272 630.9865,-201.6154 717.8336,-114.5317 638.0344,-45 632.5004,-40.178 626.4276,-36.0644 619.9868,-32.5644"/>
<polygon fill="none" stroke="#000000" points="621.5124,-29.4144 610.9918,-28.1631 618.4358,-35.7021 621.5124,-29.4144"/>
</g>
<!-- \\Ascmvc\\AscmvcDispatchListenerInterface -->
<g id="node17" class="node">
<title>\\Ascmvc\\AscmvcDispatchListenerInterface</title>
<polygon fill="none" stroke="#000000" points="247.6487,-582 27.5161,-582 27.5161,-546 247.6487,-546 247.6487,-582"/>
<text text-anchor="middle" x="137.5824" y="-560.7" font-family="Courier,monospace" font-size="11.00" fill="#000000">AscmvcDispatchListenerInterface</text>
</g>
<!-- \\Ascmvc\\AscmvcFinishListenerInterface -->
<g id="node18" class="node">
<title>\\Ascmvc\\AscmvcFinishListenerInterface</title>
<polygon fill="none" stroke="#000000" points="241.4508,-636 33.714,-636 33.714,-600 241.4508,-600 241.4508,-636"/>
<text text-anchor="middle" x="137.5824" y="-614.7" font-family="Courier,monospace" font-size="11.00" fill="#000000">AscmvcFinishListenerInterface</text>
</g>
<!-- \\Ascmvc\\AscmvcBootstrapListenerInterface -->
<g id="node19" class="node">
<title>\\Ascmvc\\AscmvcBootstrapListenerInterface</title>
<polygon fill="none" stroke="#000000" points="251.2473,-690 23.9175,-690 23.9175,-654 251.2473,-654 251.2473,-690"/>
<text text-anchor="middle" x="137.5824" y="-668.7" font-family="Courier,monospace" font-size="11.00" fill="#000000">AscmvcBootstrapListenerInterface</text>
</g>
<!-- \\Ascmvc\\AscmvcRouteListenerInterface -->
<g id="node20" class="node">
<title>\\Ascmvc\\AscmvcRouteListenerInterface</title>
<polygon fill="none" stroke="#000000" points="923.8862,-258 723.3475,-258 723.3475,-222 923.8862,-222 923.8862,-258"/>
<text text-anchor="middle" x="823.6168" y="-236.7" font-family="Courier,monospace" font-size="11.00" fill="#000000">AscmvcRouteListenerInterface</text>
</g>
<!-- \\Ascmvc\\AscmvcEventManagerListenerInterface&#45;&gt;\\Ascmvc\\AscmvcDispatchListenerInterface -->
<g id="edge11" class="edge">
<title>\\Ascmvc\\AscmvcEventManagerListenerInterface&#45;&gt;\\Ascmvc\\AscmvcDispatchListenerInterface</title>
<path fill="none" stroke="#000000" d="M361.0215,-626.9417C348.1679,-624.2738 335.3444,-621.2963 323.1648,-618 290.1756,-609.0718 283.8538,-600.9715 251.1648,-591 243.8721,-588.7754 236.2701,-586.6216 228.6072,-584.5658"/>
<polygon fill="none" stroke="#000000" points="229.4478,-581.168 218.887,-582.0163 227.6718,-587.9389 229.4478,-581.168"/>
</g>
<!-- \\Ascmvc\\AscmvcEventManagerListenerInterface&#45;&gt;\\Ascmvc\\AscmvcFinishListenerInterface -->
<g id="edge13" class="edge">
<title>\\Ascmvc\\AscmvcEventManagerListenerInterface&#45;&gt;\\Ascmvc\\AscmvcFinishListenerInterface</title>
<path fill="none" stroke="#000000" d="M356.7625,-635.2524C322.5023,-632.5556 285.4851,-629.6419 251.7994,-626.9904"/>
<polygon fill="none" stroke="#000000" points="251.7027,-623.472 241.4589,-626.1765 251.1534,-630.4505 251.7027,-623.472"/>
</g>
<!-- \\Ascmvc\\AscmvcEventManagerListenerInterface&#45;&gt;\\Ascmvc\\AscmvcBootstrapListenerInterface -->
<g id="edge10" class="edge">
<title>\\Ascmvc\\AscmvcEventManagerListenerInterface&#45;&gt;\\Ascmvc\\AscmvcBootstrapListenerInterface</title>
<path fill="none" stroke="#000000" d="M356.7625,-654.7476C325.6802,-657.1942 292.3288,-659.8194 261.2546,-662.2654"/>
<polygon fill="none" stroke="#000000" points="260.9458,-658.7787 251.2513,-663.0528 261.4952,-665.7572 260.9458,-658.7787"/>
</g>
<!-- \\Ascmvc\\AscmvcRenderListenerInterface -->
<g id="node23" class="node">
<title>\\Ascmvc\\AscmvcRenderListenerInterface</title>
<polygon fill="none" stroke="#000000" points="241.4508,-744 33.714,-744 33.714,-708 241.4508,-708 241.4508,-744"/>
<text text-anchor="middle" x="137.5824" y="-722.7" font-family="Courier,monospace" font-size="11.00" fill="#000000">AscmvcRenderListenerInterface</text>
</g>
<!-- \\Ascmvc\\AscmvcEventManagerListenerInterface&#45;&gt;\\Ascmvc\\AscmvcRenderListenerInterface -->
<g id="edge12" class="edge">
<title>\\Ascmvc\\AscmvcEventManagerListenerInterface&#45;&gt;\\Ascmvc\\AscmvcRenderListenerInterface</title>
<path fill="none" stroke="#000000" d="M404.0468,-663.0772C350.5881,-675.7009 279.1565,-692.5687 223.7085,-705.6622"/>
<polygon fill="none" stroke="#000000" points="222.8292,-702.2735 213.9012,-707.9781 224.438,-709.0861 222.8292,-702.2735"/>
</g>
<!-- \\Ascmvc\\AscmvcControllerFactoryInterface -->
<g id="node22" class="node">
<title>\\Ascmvc\\AscmvcControllerFactoryInterface</title>
<polygon fill="none" stroke="#000000" points="937.2817,-204 709.952,-204 709.952,-168 937.2817,-168 937.2817,-204"/>
<text text-anchor="middle" x="823.6168" y="-182.7" font-family="Courier,monospace" font-size="11.00" fill="#000000">AscmvcControllerFactoryInterface</text>
</g>
</g>
</svg>
